<svg width="38" height="50" viewBox="0 0 38 50" fill="none" xmlns="http://www.w3.org/2000/svg">
<path d="M34.931 49.0907C34.3729 49.0907 33.8334 48.8879 33.4149 48.5196L18.6117 36.4087L3.78824 48.5382C3.39155 48.8879 2.85378 49.0906 2.29568 49.0906C1.02942 49.0906 0 48.0604 0 46.795V5.25943C6.19835e-05 2.35947 2.36058 -0.000244141 5.26134 -0.000244141H31.9638C34.8645 -0.000244141 37.2242 2.35947 37.2242 5.25943V46.7942C37.225 48.0605 36.1956 49.0907 34.931 49.0907ZM18.6117 34.5495C18.7942 34.5495 18.9759 34.6103 19.1252 34.7328L34.4638 47.2825C34.9358 47.6963 35.6019 47.332 35.6019 46.795V5.25943C35.6026 3.25414 33.9706 1.62205 31.9638 1.62205H5.26134C3.25531 1.62205 1.62242 3.25414 1.62242 5.25943V46.7942C1.62242 47.1657 1.92415 47.4674 2.29568 47.4674C2.50494 47.4674 2.65178 47.3766 2.73936 47.3004L18.0982 34.7319C18.2475 34.6103 18.43 34.5495 18.6117 34.5495Z" fill="black" fill-opacity="0.5"/>
</svg>
