<svg width="50" height="50" viewBox="0 0 50 50" fill="none" xmlns="http://www.w3.org/2000/svg">
<path d="M11.0292 49.9998C10.9066 49.9998 10.7824 49.9696 10.6703 49.909C10.4249 49.7772 10.272 49.5197 10.272 49.2425V38.4526C3.64259 35.0054 0 28.9698 0 21.4074C0 9.72082 10.743 0.908936 24.9907 0.908936C39.2385 0.908936 49.9815 9.72082 49.9815 21.4074C49.9815 33.0925 39.2385 41.9044 24.9907 41.9044C24.5227 41.9044 24.0638 41.8786 23.6034 41.8544L23.5731 41.8529L11.4458 49.8741C11.32 49.9574 11.1746 49.9998 11.0292 49.9998ZM24.9907 2.42353C11.6078 2.42353 1.51459 10.5857 1.51459 21.4074C1.51459 26.4404 3.22305 33.2848 11.364 37.3091C11.6215 37.4363 11.785 37.6999 11.785 37.9876V47.834L22.946 40.4519C23.0824 40.361 23.2474 40.308 23.4035 40.3277L23.6852 40.3428C24.1183 40.367 24.55 40.3898 24.9892 40.3898C38.3721 40.3898 48.4654 32.2292 48.4654 21.4074C48.4654 10.5857 38.3737 2.42353 24.9907 2.42353Z" fill="black" fill-opacity="0.5"/>
</svg>
