<svg width="56" height="50" viewBox="0 0 56 50" fill="none" xmlns="http://www.w3.org/2000/svg">
<path d="M1.59333 22.2181C-1.21799 25.0191 -0.349337 30.6804 4.52022 30.6804L17.3329 30.6718C16.8463 33.3851 16.1415 37.8829 16.1695 38.3058C16.4385 42.33 19.0044 47.2249 19.1132 47.4235C19.5808 48.2943 21.9417 49.4749 24.3197 48.969C27.3915 48.3115 27.7053 46.352 27.6927 45.8117C27.6927 45.8117 27.5582 40.4513 27.5475 39.021C29.014 35.7932 34.0778 27.3184 35.6169 26.6652C35.984 26.8873 36.3983 27.0047 36.8315 27.0047H53.0194C54.3943 27.0047 55.5001 25.8924 55.5001 24.5239L55.498 2.15172C55.4017 0.94569 54.3793 -0.000244141 53.1668 -0.000244141H38.6293C37.3399 -0.000244141 36.2895 1.04801 36.2895 2.3374V3.08012C36.2895 3.08012 35.7493 3.11841 35.5039 2.96278C34.5708 2.36924 33.4138 1.62223 31.9069 1.62223H10.2112C2.09922 1.62223 2.97217 8.82263 3.71095 9.8047C2.34035 11.2969 1.4928 13.929 2.64982 16.0084C1.75755 16.9514 0.194826 19.5388 1.59333 22.2181ZM39.1241 2.34348H53.1686V24.6706H39.1241C39.1241 24.671 39.1241 2.34348 39.1241 2.34348ZM5.376 22.4102L5.50837 21.8575C1.77043 20.7946 3.75997 16.4885 6.43928 16.2069L6.57165 15.6542C2.98719 14.7422 4.69732 10.3063 7.50435 10.0029L7.63458 9.4523C4.70769 8.97182 5.41643 3.97669 9.85058 3.97669L31.9194 3.9681C33.4778 3.9681 34.8974 5.74405 36.0459 5.74405H37.0451V22.9286C35.7983 23.7036 34.2678 24.7046 33.4138 25.4305C31.8042 26.8033 25.2163 37.449 25.2163 38.7813C25.2163 40.1132 25.3637 45.8772 25.3637 45.8772C25.3637 45.8772 24.07 47.5401 21.1882 46.3276C21.1882 46.3276 18.7611 41.7743 18.5135 38.1495C18.5135 38.1495 19.6044 30.6779 20.1936 28.3316H4.89337C1.13861 28.3298 1.85594 22.9608 5.376 22.4102Z" fill="#00A8E8" fill-opacity="5"/>
</svg>
