<svg width="56" height="50" viewBox="0 0 56 50" fill="none" xmlns="http://www.w3.org/2000/svg">
<path d="M53.907 26.873C56.7185 24.074 55.8498 18.4124 50.98 18.4124L38.1667 18.421C38.6533 15.7076 39.3581 11.2095 39.3302 10.7848C39.0611 6.7626 36.4972 1.86739 36.3863 1.66703C35.9187 0.796185 33.5577 -0.384504 31.1816 0.121403C28.1097 0.779011 27.7959 2.7386 27.8084 3.27885C27.8084 3.27885 27.9408 8.63954 27.9537 10.07C26.485 13.2957 21.4209 21.7731 19.886 22.4264C19.5189 22.2042 19.1025 22.0847 18.6692 22.0847H2.48088C1.10591 22.0847 0 23.1967 0 24.5652L0.00214671 46.9386C0.0983907 48.1447 1.12309 49.0907 2.33347 49.0907H16.8738C18.1633 49.0907 19.2116 48.0424 19.2116 46.7529V46.0101C19.2116 46.0101 19.7519 45.9697 19.9973 46.1275C20.9322 46.7211 22.0875 47.4681 23.5945 47.4681H45.293C53.4054 47.4681 52.5346 40.2673 51.7936 39.2852C53.1643 37.7929 54.0119 35.1607 52.8548 33.0812C53.7428 32.1399 55.3056 29.5524 53.907 26.873ZM16.3744 46.7486H2.32918V24.42H16.3744V46.7486ZM50.122 26.6808L49.9897 27.2336C53.7278 28.2966 51.7381 32.605 49.0565 32.8845L48.9242 33.4372C52.5085 34.3489 50.7986 38.785 47.9911 39.0881L47.8587 39.6387C50.7857 40.1192 50.077 45.1146 45.6426 45.1146L23.5723 45.1232C22.0138 45.1232 20.5941 43.3471 19.4477 43.3471H18.4474V26.1599C19.6942 25.3871 21.227 24.3838 22.0789 23.66C23.6886 22.2872 30.2768 11.641 30.2768 10.3086C30.2768 8.97621 30.1315 3.2123 30.1315 3.2123C30.1315 3.2123 31.4231 1.54717 34.3072 2.76185C34.3072 2.76185 36.7345 7.31323 36.982 10.9405C36.982 10.9405 35.889 18.4124 35.3019 20.7566H50.6025C54.3618 20.7609 53.6444 26.128 50.122 26.6808Z" fill="black" fill-opacity="0.49"/>
</svg>
