<svg width="14" height="56" viewBox="0 0 14 56" fill="none" xmlns="http://www.w3.org/2000/svg">
<path d="M6.9375 41.625C3.12188 41.625 4.47035e-07 44.7469 4.47035e-07 48.5625C4.47035e-07 52.3781 3.12188 55.5 6.9375 55.5C10.7531 55.5 13.875 52.3781 13.875 48.5625C13.875 44.7469 10.7531 41.625 6.9375 41.625ZM6.9375 34.6875C10.7531 34.6875 13.875 31.5656 13.875 27.75C13.875 23.9344 10.7531 20.8125 6.9375 20.8125C3.12188 20.8125 4.47035e-07 23.9344 4.47035e-07 27.75C4.47035e-07 31.5656 3.12188 34.6875 6.9375 34.6875ZM6.9375 13.875C10.7531 13.875 13.875 10.7531 13.875 6.9375C13.875 3.12188 10.7531 1.78814e-06 6.9375 1.78814e-06C3.12188 1.78814e-06 4.47035e-07 3.12188 4.47035e-07 6.9375C4.47035e-07 10.7531 3.12188 13.875 6.9375 13.875Z" fill="black" fill-opacity="0.5"/>
</svg>
